# xmcd CD database file
#
# Track frame offsets:
#	150
#	17891
#	35659
#	53757
#	69485
#	90735
#	107935
#	128210
#	146304
#	166930
#	181839
#	200736
#	217901
#	232610
#
# Disc length: 3362 seconds
#
# Revision: 0
# Processed by: cddbd v1.5.1PL0 Copyright (c) Steve Scherf et al.
# Submitted via: CDex 1.51
#
DISCID=bc0d200e
DTITLE=V/A - 双恋 Best Vocal Alubm 14×2
DYEAR=2005
DGENRE=J ポップ
TTITLE0=Fu・Wa・Ri告白!
TTITLE1=Twins Revolution
TTITLE2=星夢Pas De Deux
TTITLE3=無敵のHappy Girl
TTITLE4=ともだち以上はだーれ?
TTITLE5=ユメでしょウソでしょ?
TTITLE6=夢の雫物語
TTITLE7=ほほえみください
TTITLE8=硝子だからそっと…
TTITLE9=遊んでくるく〜る♪
TTITLE10=おひさま・おひめさま
TTITLE11=ムギュムギュッLovers
TTITLE12=恋は少女のモノじゃない?
TTITLE13=わいわいLove Balloon
EXTD=YEAR: 2005
EXTT0=
EXTT1=
EXTT2=
EXTT3=
EXTT4=
EXTT5=
EXTT6=
EXTT7=
EXTT8=
EXTT9=
EXTT10=
EXTT11=
EXTT12=
EXTT13=
PLAYORDER=
